# xmcd
#
# Track frame offsets:
#	150
#	44427
#	97622
#	121063
#	132282
#	183385
#	205516
#
# Disc length: 3132 seconds
#
# Revision: 1
# Processed by: cddbd v1.5.2PL0 Copyright (c) Steve Scherf et al.
# Submitted via: audiograbber 1.83.01
#
DISCID=500c3a07
DTITLE=Santana - Collection CD 1
DYEAR=1900
DGENRE=Rock
TTITLE0=Jingo
TTITLE1=El Corazon Manda
TTITLE2=Persuasion
TTITLE3=Acapulco Sunrise
TTITLE4=Latin Tropical
TTITLE5=Soul Sacrifice ( Album Version )
TTITLE6=Let's Get Ourslves Together
EXTD=
EXTT0=
EXTT1=
EXTT2=
EXTT3=
EXTT4=
EXTT5=
EXTT6=
PLAYORDER=
